<?xml version='1.0' encoding='utf-8'?>
<svg xmlns="http://www.w3.org/2000/svg" width="50.000011" height="50" viewBox="0 0 13.22917 13.229167" version="1.1" id="svg5"><defs id="defs2"><linearGradient id="linearGradient13590"><stop style="stop-color:#ffffff;stop-opacity:0.37254902;" offset="0.56929272" id="stop13592"/></linearGradient><linearGradient id="linearGradient12656"><stop style="stop-color:#ffffff;stop-opacity:0.76296294;" offset="0" id="stop12652"/></linearGradient></defs><g id="layer1" transform="translate(-473.79635,-212.91667)"><g id="g20771" transform="matrix(0.41666667,0,0,0.41666667,411.91956,63.887225)" style="stroke-width:2.4"><path d="m 178.13765,357.67066 h -27.51667 c -1.16946,0 -2.11667,0.94721 -2.11667,2.11667 V 387.304 c 0,1.16945 0.94721,2.11666 2.11667,2.11666 h 27.51667 c 1.16945,0 2.11666,-0.94721 2.11666,-2.11666 v -27.51667 c 0,-1.16946 -0.94721,-2.11667 -2.11666,-2.11667 z" fill="#cc3333" id="path20606" style="stroke-width:0.634999"/><path d="m 176.47077,357.67066 h -25.98208 a 1.9989271,1.9989271 0 0 0 -1.98438,1.98438 v 25.90271 c -0.003,1.09537 0.88371,1.98173 1.97909,1.98437 h 25.96091 c 1.09538,0.003 1.98173,-0.88371 1.98438,-1.97908 v -25.908 c 0.0238,-1.07156 -0.82815,-1.96056 -1.89971,-1.98438 z" fill="#f44336" id="path20608" style="stroke-width:0.634999"/><g id="g2792" transform="matrix(0.17642321,0,0,0.17642321,152.28779,361.30472)" style="stroke-width:3.5993"><path d="m 57.4,26.79 c 2.02,-1.13 7.5,-3.77 18.76,4.93 11.26,8.7 8.74,15.76 7.47,17.6 -1.49,2.17 -10.88,9.74 -10.88,9.74 l -51.94,64.15 c 0,0 -3.88,-0.47 -9.08,-4.07 C 6.12,115.26 1.61,106.37 5.01,99.93 6.92,96.32 46.95,40.5 54.59,29.9 c 0.69,-0.95 1.36,-2.3 2.81,-3.11 z" fill="#fe180a" id="path2753" style="stroke-width:5.39789"/><path d="m 59.31,29.43 c -2.54,2.4 -1.16,8.31 7.01,13.82 8.41,5.68 13.95,4.87 15.56,2.67 1.69,-2.32 -2.2,-8.54 -7.61,-12.55 -5.68,-4.21 -12.2,-6.55 -14.96,-3.94 z" fill="#a42615" id="path2755" style="stroke-width:5.39789"/><path d="m 64.25,58.07 -44.64,64.88 c 0,0 3.65,1.21 6.59,1.09 4.1,-0.16 6.28,-1.94 6.28,-1.94 L 75.21,60.4 Z" fill="#ca1837" id="path2757" style="stroke-width:5.39789"/><path d="m 46.9,40.59 c 0,0 -0.95,4.06 5.66,10.67 3.31,3.31 5.65,5 7.57,6.13 1.95,1.14 3.38,1.74 3.38,1.74 l 5.81,-2 0.33,-7.01 c 0,0 -6.49,-3.33 -10.82,-8.21 C 53.22,35.58 54.22,32.03 54.49,30.02 53.52,31.2 46.9,40.59 46.9,40.59 Z" fill="#fdb700" id="path2759" style="stroke-width:5.39789"/><path d="m 81.88,51.19 -7.26,10.1 c 0,0 -1.23,0.82 -5.59,-0.21 -2.6,-0.62 -5.51,-1.95 -5.51,-1.95 l 6.14,-9 c 0,0 3.64,1.67 6.57,1.92 2.82,0.23 5.65,-0.86 5.65,-0.86 z" fill="#de7f14" id="path2761" style="stroke-width:5.39789"/><path d="m 8.62,94.47 -2.48,3.7 c 0,0 -0.46,4.75 5.47,10.74 2.21,2.23 4.51,3.86 6.5,5.06 3.31,2 5.78,2.76 5.78,2.76 l 1.76,-2.46 c 0,0 -2.29,-0.79 -4.75,-2.3 -2.63,-1.62 -5.5,-4.03 -7.39,-6.15 C 7.9,99.51 8.62,94.47 8.62,94.47 Z" fill="#fdb900" id="path2763" style="stroke-width:5.39789"/><path d="m 37.33,115.09 -2.03,2.94 c 0,0 -2.54,0.32 -6.21,-0.03 -2.25,-0.21 -5.23,-1.28 -5.23,-1.28 l 1.71,-2.49 c 0,0 2.02,0.81 5.18,1.13 3.16,0.32 6.58,-0.27 6.58,-0.27 z" fill="#df7d15" id="path2765" style="stroke-width:5.39789"/><path d="m 67.62,36.8 c -0.21,1.12 0.64,2.41 2.09,3.31 1.44,0.91 3.26,0.16 3.37,-0.64 0.11,-0.8 0.55,-9.36 4.01,-9.78 3.48,-0.43 5.08,6.63 11.82,8.45 4.84,1.3 6.36,0.05 6.36,0.05 l -0.64,-3.85 c 0,0 -2.02,1.28 -6.04,-0.96 -4.22,-2.35 -6.15,-8.88 -12.24,-8.29 -6.31,0.61 -7.22,7.65 -7.65,8.88 -0.44,1.22 -1.01,2.45 -1.08,2.83 z" fill="#d8a26d" id="path2767" style="stroke-width:5.39789"/><path d="m 81.38,14.91 c 0.48,0.97 11.9,19.06 11.9,19.06 0,0 0.08,23.16 0.08,23.97 0,1.45 0.97,2.01 2.09,0.64 0.62,-0.76 9.65,-15.76 9.65,-15.76 0,0 15.28,6.27 16.41,6.84 1.13,0.56 1.77,-0.16 1.13,-1.53 -0.64,-1.37 -10.7,-19.38 -10.7,-19.38 0,0 9.81,-13.99 10.37,-15.12 0.56,-1.13 -0.24,-1.85 -1.29,-1.37 -1.05,0.48 -13.19,6.51 -13.19,6.51 0,0 -4.43,-12.82 -4.75,-13.59 -0.56,-1.37 -1.45,-1.61 -1.85,0.08 -0.4,1.69 -4.42,15.68 -4.42,15.68 0,0 -12.87,-6.76 -13.99,-7.24 -1.12,-0.48 -1.92,0.25 -1.44,1.21 z" fill="#fd8e02" id="path2769" style="stroke-width:5.39789"/><path d="m 90.39,21.99 6.92,10.05 -0.16,16.41 6.27,-11.18 11.66,6.03 -8.04,-13.43 5.15,-8.36 c 0,0 -6.59,3.7 -6.76,3.3 -0.17,-0.4 -2.9,-8.61 -2.9,-8.61 l -2.73,9.57 z" fill="#ffe268" id="path2771" style="stroke-width:5.39789"/><path d="m 93.29,38.71 -0.02,-4.03 c 0,0 2.41,-0.35 4.66,-2.7 1.96,-2.06 3.43,-4.82 5.13,-2.41 1.28,1.82 -1.55,5.01 -3.85,6.68 -3.52,2.58 -5.92,2.46 -5.92,2.46 z" fill="#fcba03" id="path2773" style="stroke-width:5.39789"/></g><path d="m 157.94994,360.02545 c 0,-0.60854 -0.42334,-0.79375 -2.8575,-0.71437 -2.03729,0.0794 -3.04271,0.3175 -3.65125,1.05833 -0.50271,0.60854 -0.60854,1.48167 -0.68792,2.2225 -0.0529,0.58209 -0.58208,3.94229 0.92604,2.96334 0.17992,-0.11907 0.32544,-0.28311 0.42334,-0.47625 0.3175,-0.55563 0.5027,-0.92605 0.87312,-1.48167 1.40229,-2.27542 4.97417,-2.77813 4.97417,-3.57188 z" fill="#ff8a80" id="path20610" style="stroke-width:0.634999"/></g></g><style type="text/css" id="style4912"> .cubies_negentien{fill:#F2C99E;} .cubies_twintig{fill:#F9E0BD;} .cubies_zesentwintig{fill:#65C3AB;} .cubies_zeventien{fill:#EC9B5A;} .st0{fill:#725A48;} .st1{fill:#8E7866;} .st2{fill:#D97360;} .st3{fill:#98D3BC;} .st4{fill:#C9483A;} .st5{fill:#CCE2CD;} .st6{fill:#EDB57E;} .st7{fill:#4C4842;} .st8{fill:#67625D;} .st9{fill:#FFF2DF;} .st10{fill:#C9C6C0;} .st11{fill:#EDEAE5;} .st12{fill:#A4C83F;} .st13{fill:#BCD269;} .st14{fill:#D1DE8B;} .st15{fill:#E69D8A;} .st16{fill:#E3D4C0;} .st17{fill:#C6B5A2;} .st18{fill:#837F79;} .st19{fill:#A5A29C;} .st20{fill:#2EB39A;} .st21{fill:#AB9784;} </style><style type="text/css" id="style5194"> .st0{fill:#000000;} </style><style type="text/css" id="style5223"> .st0{fill:#000000;} </style></svg>